<svg xmlns="http://www.w3.org/2000/svg" viewBox="0 0 1280 720" role="img" aria-labelledby="title desc">
  <title id="title">Pantalla de inicio de ETS5</title>
  <desc id="desc">Captura recreada de la vista de bienvenida de ETS5 con panel de proyectos recientes.</desc>
  <defs>
    <linearGradient id="bg" x1="0" x2="1" y1="0" y2="1">
      <stop offset="0%" stop-color="#2d3b55" />
      <stop offset="100%" stop-color="#1d2738" />
    </linearGradient>
    <linearGradient id="panel" x1="0" x2="0" y1="0" y2="1">
      <stop offset="0%" stop-color="#f7f9fc" />
      <stop offset="100%" stop-color="#e0e6f1" />
    </linearGradient>
    <linearGradient id="sidebar" x1="0" x2="1" y1="0" y2="0">
      <stop offset="0%" stop-color="#1f2b3d" />
      <stop offset="100%" stop-color="#27354a" />
    </linearGradient>
  </defs>
  <rect width="1280" height="720" fill="url(#bg)" />
  <rect x="40" y="80" width="1200" height="560" rx="20" fill="#101829" opacity="0.55" />
  <rect x="70" y="110" width="1140" height="500" rx="12" fill="url(#panel)" />
  <rect x="70" y="110" width="220" height="500" rx="12" fill="url(#sidebar)" />
  <rect x="70" y="110" width="1140" height="48" rx="12" fill="#1d2738" />
  <circle cx="110" cy="134" r="10" fill="#3ad3ff" />
  <text x="140" y="141" font-family="'Segoe UI', sans-serif" font-size="22" fill="#f5f7fb" font-weight="600">ETS5</text>
  <rect x="320" y="130" width="150" height="20" rx="10" fill="#314363" opacity="0.4" />
  <rect x="490" y="130" width="150" height="20" rx="10" fill="#314363" opacity="0.4" />
  <rect x="660" y="130" width="220" height="20" rx="10" fill="#314363" opacity="0.4" />
  <rect x="900" y="130" width="180" height="20" rx="10" fill="#3ad3ff" opacity="0.8" />
  <text x="90" y="190" font-family="'Segoe UI', sans-serif" font-size="18" fill="#7fb2ff">PROYECTOS</text>
  <text x="90" y="230" font-family="'Segoe UI', sans-serif" font-size="16" fill="#d9e4ff">Recientes</text>
  <text x="90" y="270" font-family="'Segoe UI', sans-serif" font-size="16" fill="#d9e4ff">Catálogo</text>
  <text x="90" y="310" font-family="'Segoe UI', sans-serif" font-size="16" fill="#d9e4ff">Topología</text>
  <text x="90" y="350" font-family="'Segoe UI', sans-serif" font-size="16" fill="#d9e4ff">Grupos</text>
  <text x="90" y="390" font-family="'Segoe UI', sans-serif" font-size="16" fill="#d9e4ff">Apps ETS</text>
  <text x="90" y="430" font-family="'Segoe UI', sans-serif" font-size="16" fill="#d9e4ff">Diagnóstico</text>
  <rect x="320" y="200" width="860" height="80" rx="10" fill="#fff" opacity="0.9" />
  <rect x="320" y="300" width="860" height="80" rx="10" fill="#fff" opacity="0.9" />
  <rect x="320" y="400" width="860" height="80" rx="10" fill="#fff" opacity="0.9" />
  <rect x="320" y="500" width="860" height="80" rx="10" fill="#fff" opacity="0.9" />
  <text x="350" y="240" font-family="'Segoe UI', sans-serif" font-size="20" fill="#22304a" font-weight="600">Proyecto Vivienda Demo</text>
  <text x="350" y="340" font-family="'Segoe UI', sans-serif" font-size="20" fill="#22304a" font-weight="600">Proyecto Oficina KNX</text>
  <text x="350" y="440" font-family="'Segoe UI', sans-serif" font-size="20" fill="#22304a" font-weight="600">Proyecto Hotel Boutique</text>
  <text x="350" y="540" font-family="'Segoe UI', sans-serif" font-size="20" fill="#22304a" font-weight="600">Plantilla Base ETS5</text>
  <text x="350" y="264" font-family="'Segoe UI', sans-serif" font-size="16" fill="#4d6183">Actualizado: 02/05/2024 · Último autor: Instructor</text>
  <text x="350" y="364" font-family="'Segoe UI', sans-serif" font-size="16" fill="#4d6183">Actualizado: 18/04/2024 · Último autor: Equipo Técnico</text>
  <text x="350" y="464" font-family="'Segoe UI', sans-serif" font-size="16" fill="#4d6183">Actualizado: 05/03/2024 · Último autor: Alumno 1</text>
  <text x="350" y="564" font-family="'Segoe UI', sans-serif" font-size="16" fill="#4d6183">Creado: 10/02/2024 · Último autor: Instructor</text>
  <rect x="1030" y="220" width="120" height="36" rx="18" fill="#3ad3ff" opacity="0.85" />
  <text x="1046" y="245" font-family="'Segoe UI', sans-serif" font-size="16" fill="#102037" font-weight="600">Abrir</text>
  <rect x="1030" y="320" width="120" height="36" rx="18" fill="#3ad3ff" opacity="0.85" />
  <rect x="1030" y="420" width="120" height="36" rx="18" fill="#3ad3ff" opacity="0.85" />
  <rect x="1030" y="520" width="120" height="36" rx="18" fill="#3ad3ff" opacity="0.85" />
</svg>
