<svg xmlns="http://www.w3.org/2000/svg" viewBox="0 0 1280 720" role="img" aria-labelledby="title desc">
  <title id="title">Vista de topología en ETS5</title>
  <desc id="desc">Representación de la vista de topología de ETS5 con áreas, líneas y dispositivos.</desc>
  <rect width="1280" height="720" fill="#0f1724" />
  <rect x="80" y="60" width="1120" height="600" rx="16" fill="#f4f7fc" stroke="#cad3e5" stroke-width="3" />
  <rect x="80" y="60" width="1120" height="54" rx="16" fill="#1c293d" />
  <text x="120" y="97" font-family="'Segoe UI', sans-serif" font-size="22" fill="#f4f7fb">Topología · Proyecto Oficina KNX</text>
  <rect x="1080" y="78" width="90" height="28" rx="14" fill="#3ad3ff" opacity="0.85" />
  <text x="1098" y="97" font-family="'Segoe UI', sans-serif" font-size="16" fill="#102037">Filtrar</text>
  <rect x="110" y="140" width="320" height="480" rx="12" fill="#1f2c41" />
  <text x="135" y="178" font-family="'Segoe UI', sans-serif" font-size="18" fill="#9fbdf5">Áreas y líneas</text>
  <text x="135" y="214" font-family="'Segoe UI', sans-serif" font-size="16" fill="#dbe6ff">Área 1 · Edificio A</text>
  <text x="135" y="248" font-family="'Segoe UI', sans-serif" font-size="16" fill="#dbe6ff">Área 2 · Edificio B</text>
  <text x="135" y="282" font-family="'Segoe UI', sans-serif" font-size="16" fill="#dbe6ff">Área 3 · Zonas comunes</text>
  <rect x="470" y="140" width="680" height="480" rx="12" fill="#ffffff" />
  <text x="500" y="180" font-family="'Segoe UI', sans-serif" font-size="18" fill="#23344f" font-weight="600">Área 1 · Línea 1.1</text>
  <line x1="500" y1="196" x2="1120" y2="196" stroke="#d5dced" />
  <g font-family="'Segoe UI', sans-serif" font-size="16" fill="#3f5273">
    <text x="500" y="228">1.1.1 · Actuador de iluminación 8x10A</text>
    <text x="500" y="258">1.1.2 · Fuente de alimentación 640mA</text>
    <text x="500" y="288">1.1.3 · Line Coupler Área 1</text>
    <text x="500" y="318">1.1.4 · Sensor de presencia oficina norte</text>
    <text x="500" y="348">1.1.5 · Pulsador 4 canales sala reuniones</text>
    <text x="500" y="378">1.1.6 · Control HVAC fan-coil</text>
    <text x="500" y="408">1.1.7 · Interface IP Secure</text>
    <text x="500" y="438">1.1.8 · Panel táctil supervisor</text>
  </g>
  <rect x="500" y="460" width="640" height="120" rx="10" fill="#f0f4fd" />
  <text x="520" y="492" font-family="'Segoe UI', sans-serif" font-size="16" fill="#3f5273">Notas técnicas:</text>
  <text x="520" y="520" font-family="'Segoe UI', sans-serif" font-size="15" fill="#5a6d8d">· Verificar carga máxima por línea</text>
  <text x="520" y="548" font-family="'Segoe UI', sans-serif" font-size="15" fill="#5a6d8d">· Confirmar redundancia de fuente 30V</text>
</svg>
